<?xml version="1.0" encoding="UTF-8" standalone="no"?>
<svg width="150px" height="150px" viewBox="0 0 150 150" version="1.1" xmlns="http://www.w3.org/2000/svg" xmlns:xlink="http://www.w3.org/1999/xlink">
    <!-- Generator: Sketch 49 (51002) - http://www.bohemiancoding.com/sketch -->
    <title>strategy</title>
    <desc>Created with Sketch.</desc>
    <defs></defs>
    <g id="Page-1" stroke="none" stroke-width="1" fill="none" fill-rule="evenodd">
        <g id="512-copy-4" transform="translate(-71.000000, -63.000000)" fill="#FFFFFF" fill-rule="nonzero">
            <g id="noun_Clipboard-Strategy_454765" transform="translate(71.000000, 63.000000)">
                <g id="Group">
                    <path d="M75,0 C33.5973938,0 3.75e-05,33.5975 0,75 C3.75e-05,116.402812 33.5973938,150 75,150 C116.402609,150 149.999963,116.402812 150,75 C149.999963,33.5975 116.402609,0 75,0 Z M75,3.16162125 C114.694216,3.16162125 146.838344,35.3059375 146.838378,75 C146.838344,114.694375 114.694216,146.844481 75,146.844481 C35.3057844,146.844481 3.16165562,114.694375 3.16162125,75 C3.16165562,35.3059375 35.3057844,3.16162125 75,3.16162125 Z M75,28.125 C73.1314063,28.125 71.875,29.3428028 71.875,30.5603028 C71.875,30.8646778 71.9461125,31.1520019 72.0825188,31.4270031 C72.1510188,31.5641906 72.2363031,31.7017094 72.3388688,31.8298344 C73.1550594,32.8023344 72.131775,34.5875 70.8801281,34.375 L65.625,34.375 L65.625,37.5 L84.375,37.5 L84.375,34.375 L79.1137688,34.375 C77.8640313,34.5815625 76.8477906,32.8010844 77.6611313,31.8298344 C77.7660406,31.6988969 77.8508875,31.5613781 77.9174813,31.4270031 C78.0538563,31.1520019 78.125,30.8634278 78.125,30.5603028 C78.125,29.3428028 76.8685938,28.125 75,28.125 Z M62.5,37.4694812 C62.41925,37.5007312 62.3375469,37.5003125 62.2558594,37.5 L43.75,37.5 L43.75,115.625 L106.25,115.625 L106.25,37.5 L87.5,37.5 L87.5,39.0625 C87.4999187,39.880625 86.7556,40.625 85.9375,40.625 L64.0625,40.625 C63.2444,40.625 62.5000813,39.880625 62.5,39.0625 L62.5,37.4816906 L62.5,37.4694812 Z M48.4375,43.75 L101.922606,43.75 C102.740706,43.75 103.485025,44.494375 103.485106,45.3125 L103.485106,110.9375 C103.485025,111.755625 102.740706,112.5 101.922606,112.5 L48.4375,112.5 C47.6194,112.5 46.8750813,111.755625 46.875,110.9375 L46.875,45.3125 C46.8750813,44.494375 47.6194,43.75 48.4375,43.75 Z M50,46.875 L50,109.375 L100.360106,109.375 L100.360106,46.875 L50,46.875 Z M60.85205,50 C61.2692,49.99375 61.6862625,50.1640125 61.9812,50.4577625 L66.4001469,54.8767094 C67.5958719,56.0248344 65.3386875,58.2818062 64.190675,57.0861812 L62.4328625,55.3283687 C62.6776813,75.2864937 74.6907938,93.061425 92.7368156,100.109863 C93.4990125,100.408613 93.9206375,101.374044 93.621825,102.136231 C93.3230188,102.899356 92.3576563,103.321241 91.5954594,103.021241 C72.3226844,95.4937406 59.5577688,76.5421375 59.3078625,55.340575 L57.5622562,57.0861812 C56.4142375,58.2818062 54.1570844,56.0248344 55.3527844,54.8767094 L59.7717281,50.4577625 C60.0551563,50.17495 60.451175,50 60.85205,50 Z M73.4619125,59.3444812 C74.2963156,59.3316687 75.0619531,60.0970219 75.0488281,60.9313969 L75.0488281,62.5 L76.6357438,62.5 C77.4612281,62.4884375 78.2226563,63.236875 78.2226563,64.0625 C78.2226563,64.888125 77.4612281,65.625 76.6357438,65.625 L75.0488281,65.625 L75.0488281,67.1325688 C75.0605,67.9581937 74.3118969,68.7194813 73.4863281,68.7194813 C72.6607594,68.7194813 71.9122656,67.9581937 71.9238281,67.1325688 L71.9238281,65.625 L70.3674313,65.625 C69.5419438,65.6365625 68.7805188,64.888125 68.7805188,64.0625 C68.7805188,63.236875 69.5419438,62.5 70.3674313,62.5 L71.9238281,62.5 L71.9238281,60.9313969 C71.911025,60.1132719 72.6437875,59.3444812 73.4619125,59.3444812 Z M87.5,64.0625 C90.0697625,64.0625 92.181375,66.1803125 92.1813969,68.75 C92.181375,71.32 90.0697625,73.4375 87.5,73.4375 C84.9302375,73.4375 82.8125219,71.32 82.8125,68.75 C82.8125219,66.1803125 84.9302375,64.0625 87.5,64.0625 Z M87.5,67.1875 C86.6201844,67.1875 85.9375062,67.868125 85.9375,68.75 C85.9375062,69.6321875 86.6201844,70.3125 87.5,70.3125 C88.3798156,70.3125 89.0563906,69.6321875 89.0563969,68.75 C89.0563906,67.868125 88.3798156,67.1875 87.5,67.1875 Z M60.9375,81.25 C63.5082688,81.25 65.62505,83.366875 65.625,85.9375 C65.62505,88.5084375 63.5082688,90.625 60.9375,90.625 C58.3667313,90.625 56.24995,88.5084375 56.25,85.9375 C56.24995,83.366875 58.3667313,81.25 60.9375,81.25 Z M89.0502938,81.25 C89.8846969,81.236875 90.6503313,82.0025375 90.6372063,82.8369125 L90.6372063,84.4116219 L92.230225,84.4116219 C93.0557094,84.4000594 93.8171375,85.1484969 93.8171375,85.9741219 C93.8171375,86.7997469 93.0557094,87.5366219 92.230225,87.5366219 L90.6372063,87.5366219 L90.6372063,89.1113281 C90.648875,89.9369531 89.9002719,90.6982437 89.0747063,90.6982437 C88.2491406,90.6982437 87.5006438,89.9369531 87.5122063,89.1113281 L87.5122063,87.5366219 L85.9619125,87.5366219 C85.1364281,87.5484969 84.375,86.7997469 84.375,85.9741219 C84.375,85.1484969 85.1364313,84.4116219 85.9619125,84.4116219 L87.5122063,84.4116219 L87.5122063,82.8369125 C87.4994063,82.0187906 88.2321656,81.25 89.0502938,81.25 Z M60.9375,84.375 C60.0564406,84.375 59.3749844,85.055 59.375,85.9375 C59.3749844,86.8203125 60.0564406,87.5 60.9375,87.5 C61.8185594,87.5 62.5000156,86.8203125 62.5,85.9375 C62.5000156,85.055 61.8185594,84.375 60.9375,84.375 Z M70.2575688,93.75 C71.0919719,93.736875 71.8576063,94.5025375 71.8444813,95.3369125 L71.8444813,96.875 L73.4130875,96.875 C74.2385719,96.8634375 75,97.611875 75,98.4375 C75,99.263125 74.2385719,100 73.4130875,100 L71.8444813,100 L71.8444813,101.544191 C71.8561531,102.369816 71.10755,103.131103 70.2819813,103.131103 C69.4564125,103.131103 68.7079188,102.369816 68.7194813,101.544191 L68.7194813,100 L67.144775,100 C66.3192875,100.011562 65.5578625,99.263125 65.5578625,98.4375 C65.5578625,97.611875 66.3192875,96.875 67.144775,96.875 L68.7194813,96.875 L68.7194813,95.3369125 C68.7066813,94.5187906 69.4394406,93.75 70.2575688,93.75 Z" id="strategy"></path>
                </g>
            </g>
        </g>
    </g>
</svg>